
Genre:Comedy
Language:English
IMDb:http://www.imdb.com/title/tt1220628/
Source:UNRATED.LIMITED.720p.BluRay.X264-AMIABLE Thanks!

Format : AVI
Format/Info : Audio Video Interleave
File size : 1.11 GiB
Duration : 1h 45mn
Overall bit rate : 1 506 Kbps

Video
ID : 0
Format : MPEG-4 Visual
Format profile : Advanced Simple@L5
Format settings, BVOP : Yes
Format settings, QPel : No
Format settings, GMC : No warppoints
Format settings, Matrix : Default (H.263)
Codec ID : XVID
Codec ID/Hint : XviD
Duration : 1h 45mn
Bit rate : 1 049 Kbps
Width : 640 pixels
Height : 272 pixels
Display aspect ratio : 2.35:1
Frame rate : 23.976 fps
Color space : YUV
Chroma subsampling : 4:2:0
Bit depth : 8 bits
Scan type : Progressive
Bits/(Pixel*Frame) : 0.251
Stream size : 793 MiB (70%)
Writing library : XviD 1.2.1 (UTC 2008-12-04)

Audio
ID : 1
Format : AC-3
Format/Info : Audio Coding 3
Mode extension : CM (complete main)
Codec ID : 2000
Duration : 1h 45mn
Bit rate mode : Constant
Bit rate : 448 Kbps
Channel(s) : 6 channels
Channel positions : Front: L C R, Side: L R, LFE
Sampling rate : 48.0 KHz
Bit depth : 16 bits
Stream size : 339 MiB (30%)
Alignment : Aligned on interleaves
Interleave, duration : 42 ms (1.00 video frame)
Interleave, preload duration : 512 ms


Plot:
A guy tries to patch things up with his soon-to-be-married pal after botching things up at his bachelor party. Based on Tucker Max's best-seller "I Hope They Serve Beer in Hell".

 
http://leetleech.org/images/32623246115012029745.png
 
http://leetleech.org/images/08032325917003103210.png
 
http://leetleech.org/images/80582704184553202300.png
 
http://leetleech.org/images/57454163906389277210.png